<?xml version="1.0" standalone="no"?>
<!DOCTYPE svg PUBLIC "-//W3C//DTD SVG 20010904//EN"
 "http://www.w3.org/TR/2001/REC-SVG-20010904/DTD/svg10.dtd">
<svg version="1.0" xmlns="http://www.w3.org/2000/svg"
 width="2048.000000pt" height="2048.000000pt" viewBox="0 0 2048.000000 2048.000000"
 preserveAspectRatio="xMidYMid meet">
<metadata>
Created by potrace 1.11, written by Peter Selinger 2001-2013
</metadata>
<g transform="translate(0.000000,2048.000000) scale(0.100000,-0.100000)"
fill="#000000" stroke="none">
<path d="M9860 16669 c-973 -55 -1914 -332 -2795 -824 -166 -93 -483 -300
-660 -431 -600 -445 -1127 -1002 -1547 -1636 -1156 -1745 -1380 -3989 -593
-5942 463 -1151 1230 -2120 2260 -2858 73 -52 290 -196 347 -229 l48 -28 0
479 0 479 -63 48 c-435 332 -834 733 -1143 1148 -325 438 -594 939 -777 1445
-167 463 -263 891 -314 1400 -24 245 -24 795 0 1040 74 735 256 1368 579 2013
380 761 942 1435 1638 1966 620 474 1381 828 2153 1002 1689 381 3454 -31
4797 -1120 1099 -891 1824 -2161 2029 -3556 45 -302 55 -455 55 -825 0 -380
-10 -525 -59 -849 -139 -913 -498 -1774 -1049 -2516 -319 -429 -748 -856
-1181 -1175 -1003 -740 -2224 -1126 -3465 -1096 -463 11 -861 65 -1298 177
-158 41 -466 140 -619 199 l-83 32 0 3374 0 3374 -400 0 -400 0 0 -3633 0
-3633 198 -91 c1442 -668 3032 -785 4562 -336 340 99 818 290 1083 432 29 15
97 52 152 81 813 431 1598 1125 2162 1910 1035 1443 1423 3237 1082 5000 -47
242 -148 627 -209 794 -10 28 -37 102 -59 164 -110 301 -297 713 -420 920 -17
29 -31 54 -31 56 0 7 -161 268 -221 358 -414 626 -946 1188 -1544 1632 -177
131 -494 338 -660 431 -387 216 -761 381 -1170 516 -750 248 -1573 354 -2385
308z"/>
<path d="M9540 10515 l0 -3325 405 0 405 0 0 1685 0 1685 68 71 c182 193 455
386 666 469 155 61 263 82 458 87 142 4 197 2 275 -12 394 -70 618 -312 710
-765 15 -78 17 -218 20 -1652 l4 -1568 400 0 400 0 -4 1613 c-3 1581 -4 1614
-24 1722 -82 435 -235 737 -486 962 -285 256 -699 379 -1155 344 -174 -14
-357 -49 -473 -91 -256 -93 -541 -278 -771 -499 l-88 -84 0 1342 0 1341 -405
0 -405 0 0 -3325z"/>
<path d="M7431 13695 c-42 -36 -54 -81 -50 -197 l4 -99 -58 -24 c-104 -42
-164 -96 -173 -157 -10 -61 64 -139 172 -183 l59 -24 -3 -103 c-5 -140 21
-200 93 -214 57 -10 140 26 251 110 8 7 25 -2 55 -27 168 -144 304 -100 304
98 0 38 -3 85 -7 103 -7 29 -5 34 20 43 265 100 281 254 37 354 -54 22 -60 27
-58 52 7 91 4 192 -6 216 -41 103 -151 101 -288 -4 l-52 -41 -53 41 c-110 83
-192 101 -247 56z m164 -60 c22 -14 53 -36 69 -49 28 -23 29 -26 13 -48 -8
-13 -33 -42 -54 -65 -36 -40 -42 -42 -110 -48 l-71 -7 -7 46 c-11 74 -2 162
20 187 16 17 27 20 60 14 22 -3 58 -17 80 -30z m401 27 c33 -22 48 -104 34
-186 -5 -32 -11 -60 -12 -61 -2 -2 -147 21 -154 25 -13 5 -93 124 -87 129 5 3
25 19 45 34 71 55 143 80 174 59z m-206 -214 c0 -5 -27 -8 -60 -8 -33 0 -60 2
-60 5 0 2 14 21 32 41 l32 36 28 -33 c15 -19 28 -37 28 -41z m99 -145 c28 -49
51 -93 51 -99 0 -6 -23 -49 -52 -97 l-52 -87 -103 0 -103 0 -34 53 c-18 28
-43 70 -54 93 l-21 41 51 91 51 92 108 0 107 0 51 -87z m-355 30 c-39 -68 -40
-69 -58 -22 -18 45 -15 55 24 62 63 11 63 11 34 -40z m444 37 c26 0 28 -14 6
-65 l-16 -38 -29 51 c-35 62 -35 66 -6 58 12 -3 32 -6 45 -6z m-545 -88 c15
-37 27 -72 27 -77 0 -5 -12 -40 -27 -77 -30 -77 -26 -76 -123 -28 -60 31 -94
62 -105 98 -6 19 1 31 38 67 36 34 124 82 158 84 3 1 18 -29 32 -67z m713 33
c73 -36 114 -73 114 -106 0 -29 -49 -78 -109 -109 -88 -44 -88 -44 -121 34
l-30 70 28 73 c15 40 31 73 36 73 5 0 42 -16 82 -35z m-612 -238 l28 -48 -49
7 c-26 3 -50 8 -52 10 -2 2 4 24 14 50 19 50 20 50 59 -19z m451 33 c26 -51
20 -67 -27 -73 -24 -3 -44 -4 -46 -2 -4 3 50 105 55 105 1 0 9 -13 18 -30z
m48 -176 c15 -107 -15 -194 -66 -194 -33 1 -105 36 -154 76 l-43 35 49 62 c49
61 50 62 118 73 37 6 73 10 78 9 6 -1 14 -28 18 -61z m-437 42 c42 -46 94
-121 90 -131 -8 -23 -108 -83 -159 -97 -44 -11 -49 -11 -69 10 -25 24 -35 109
-23 187 l6 47 77 -7 c42 -4 78 -8 78 -9z m173 -46 c-35 -44 -42 -43 -80 12
l-20 28 66 0 66 0 -32 -40z"/>
<path d="M7681 13296 c-54 -30 -67 -106 -25 -155 62 -74 173 -34 174 62 0 49
-13 73 -50 92 -35 18 -67 19 -99 1z"/>
</g>
</svg>
